<?xml version="1.0" encoding="utf-8"?>
<!-- Generator: Adobe Illustrator 27.0.1, SVG Export Plug-In . SVG Version: 6.00 Build 0)  -->
<svg version="1.1" id="Layer_1" xmlns="http://www.w3.org/2000/svg" xmlns:xlink="http://www.w3.org/1999/xlink" x="0px" y="0px"
	 viewBox="0 0 1956.5 463.3" style="enable-background:new 0 0 1956.5 463.3;" xml:space="preserve">
<style type="text/css">
	.st0{fill:#3F3F3F;}
	.st1{fill:#B9D527;}
</style>
<g>
	<g>
		<path class="st0" d="M594.9,344.3L689,139.1c0.6-1.5,2.7-2.7,4.5-2.7c1.8,0,3.6,1.2,4.2,2.7l94.1,205.2c0.9,2.1,0,3.6-2.4,3.6
			h-29.2c-2.4,0-4.8-1.5-5.7-3.6l-8.3-18.2c-2.1-4.5-6.9-7.4-11.9-7.4h-81.9c-5.1,0-9.8,3-11.9,7.4l-8.3,18.2
			c-0.9,2.1-3.3,3.6-5.4,3.6h-29.5C594.9,347.9,594,346.4,594.9,344.3z M667.9,285.3h51.2c5.1,0,6.9-3,4.8-7.7l-26.8-58.4
			c-1.2-2.4-2.4-3.6-3.6-3.6s-2.4,1.2-3.6,3.6l-27.1,58.4C660.7,282.3,662.8,285.3,667.9,285.3z"/>
		<path class="st0" d="M911.8,134.9c20.9,0,40.8,8.3,59,18.8c2.1,1.2,2.1,3.6,0.9,5.4l-16.1,22.9c-1.5,2.1-3.3,2.4-5.4,0.9
			c-8.9-6.6-22.3-12.5-38.1-12.5c-93.8,0-93.8,146.6,0,146.6c19.4,0,31.3-6,38.4-11.9c1.8-1.5,3.9-1.2,5.1,0.6l16.4,22.6
			c1.2,1.8,0.9,4.2-0.9,5.4c-16.1,12.5-33.4,18.8-59.3,18.8c-71.8,0-107.5-54.5-107.5-108.7C804.3,189.1,840,134.9,911.8,134.9z"/>
		<path class="st0" d="M1100.4,134.9c20.9,0,40.8,8.3,59,18.8c2.1,1.2,2.1,3.6,0.9,5.4l-16.1,22.9c-1.5,2.1-3.3,2.4-5.4,0.9
			c-8.9-6.6-22.3-12.5-38.1-12.5c-93.8,0-93.8,146.6,0,146.6c19.4,0,31.3-6,38.4-11.9c1.8-1.5,3.9-1.2,5.1,0.6l16.4,22.6
			c1.2,1.8,0.9,4.2-0.9,5.4c-16.1,12.5-33.4,18.8-59.3,18.8c-71.8,0-107.5-54.5-107.5-108.7C992.9,189.1,1028.6,134.9,1100.4,134.9z
			"/>
		<path class="st1" d="M1200.2,168.8v-25.6c0-2.4,1.5-3.9,3.9-3.9h127.2c2.4,0,3.9,1.5,3.9,3.9v25.6c0,2.4-1.5,3.9-3.9,3.9h-127.2
			C1201.7,172.7,1200.2,171.2,1200.2,168.8z M1200.2,230.8c0-2.4,1.5-3.9,3.9-3.9h127.2c2.4,0,3.9,1.5,3.9,3.9v25.6
			c0,2.4-1.5,3.9-3.9,3.9h-127.2c-2.4,0-3.9-1.5-3.9-3.9V230.8z M1204.1,314.5h127.2c2.4,0,3.9,1.5,3.9,3.9V344
			c0,2.4-1.5,3.9-3.9,3.9h-127.2c-2.4,0-3.9-1.5-3.9-3.9v-25.6C1200.2,316,1201.7,314.5,1204.1,314.5z"/>
		<path class="st0" d="M1375.6,344V143.2c0-2.4,1.5-3.9,3.9-3.9h28c2.4,0,3.9,1.5,3.9,3.9v162.9c0,5.1,3.3,8.3,8.3,8.3h87
			c2.4,0,3.9,1.5,3.9,3.9V344c0,2.4-1.5,3.9-3.9,3.9h-127.2C1377.1,347.9,1375.6,346.4,1375.6,344z"/>
		<path class="st0" d="M1543.9,344V143.2c0-2.4,1.5-3.9,3.9-3.9h28c2.4,0,3.9,1.5,3.9,3.9v162.9c0,5.1,3.3,8.3,8.3,8.3h87
			c2.4,0,3.9,1.5,3.9,3.9V344c0,2.4-1.5,3.9-3.9,3.9h-127.2C1545.4,347.9,1543.9,346.4,1543.9,344z"/>
		<path class="st0" d="M1716.1,139.3h28c2.4,0,3.9,1.5,3.9,3.9V344c0,2.4-1.5,3.9-3.9,3.9h-28c-2.4,0-3.9-1.5-3.9-3.9V143.2
			C1712.2,140.8,1713.7,139.3,1716.1,139.3z"/>
		<path class="st0" d="M1790.3,317.8l21.7-17c1.8-1.2,3.9-1.2,5.4,0.6c13.1,15.2,33.1,20,52.4,20c15.8,0,39.3-6,39.3-25.6
			c0-39.9-115.9-35.7-115.9-104c0-40.8,34-61.1,71.5-61.1c25.6,0,50.6,11.6,70.3,28c1.8,1.5,1.8,3.9,0.3,5.4l-18.2,20.6
			c-1.8,1.8-3.9,1.8-5.4,0.3c-13.4-11.9-30.1-19.1-48.3-19.1c-17.9,0-35.2,6.3-35.2,27.1c0,35.7,115.9,31,115.9,104
			c0,40.5-39.9,59.6-75.7,59.6c-29.5,0-59.9-10.1-78.9-33.4C1788.2,321.4,1788.5,319.3,1790.3,317.8z"/>
	</g>
	<g>
		<g>
			<path class="st0" d="M363.3,324.6L420,430.4c5.4,10.9,3.3,6.2,7.6,15.9c44.3-22.4,67.1-58.2,49.5-110.6
				c-5.5-4.4-18.2-12.8-38.8-16.8C421.2,315.6,396.3,315.1,363.3,324.6z"/>
			<path class="st0" d="M48.6,345.5c15.6,11.5,48.1-3.5,59.3-10.2c0.2-0.1,0.5-0.3,0.7-0.4c5.5-2.6,12.2-6,20-10.2
				c45.1-98.2,93.9-157.1,113.6-178.7c-8.3-5.2-17.4-9.6-27.1-12.7c-31.5-10-65.4-4.7-100.7,15.7L45.9,264.9l-0.2,0.4
				c-7.2,28.3-8.6,48.4-6.4,62.5C40.8,336.1,43.9,342.1,48.6,345.5z"/>
			<path class="st1" d="M249.5,13c-34.3-0.4-67,22.8-92.2,65.2l-26.4,44.5c30.8-12.4,60.8-14.1,89.3-5c49.2,15.6,81.2,59,95.9,83.4
				c16-20.1,25.4-42.8,28.1-67.8c3.2-29.6-4.5-52.1-5.8-55.7C314.5,36.3,283,13.4,249.5,13z"/>
			<path class="st1" d="M380.6,303.6c22.3-4.2,43.3-4.3,62.3-0.5c9.8,2,18.1,4.9,24.9,8c-12.1-25.2-27.7-52.9-28-53.3L392.7,174
				c-0.1-0.1-0.2-0.3-0.2-0.4c-18.7-32.4-25-44.5-30-54.3c-0.3-0.7-0.7-1.3-1-1.9c0.1,5.6-0.2,11.5-0.9,17.7
				c-3.6,33.3-20.5,81-80.6,119.5c-0.2,0.2-0.5,0.3-0.7,0.4l-0.1,0.1c-0.1,0-0.2,0.1-0.2,0.1c-0.1,0-0.1,0.1-0.2,0.1
				c-0.2,0.1-0.5,0.3-0.8,0.5c-0.5,0.3-1,0.6-1.3,0.8c-1,0.6-2,1.2-3,1.8c-0.4,0.2-0.7,0.4-1.1,0.6c-0.1,0-0.1,0.1-0.2,0.1
				C195.6,306.4,143,336.8,116,349.6c-2.2,1.3-13.1,7.5-26.7,11.9c-21.5,7-38.4,6-50.4-2.8c-11.4-8.4-17.2-22.9-17.3-43.9
				c-9.2,26.9-13.6,61.2,6.9,88.4c0.1,0.1,0.2,0.3,0.3,0.5c1.7,2.6,43.7,64.1,126.6,15.1c32.1-19,80.4-47.9,136.1-81.3
				c0.1-0.1,0.2-0.1,0.4-0.2c0.1-0.1,0.2-0.1,0.3-0.2C323.4,320,353.1,308.7,380.6,303.6z"/>
		</g>
	</g>
</g>
</svg>
